<svg xmlns="http://www.w3.org/2000/svg" width="25" height="25" viewBox="0 0 25 25">
  <g id="Group_924" data-name="Group 924" transform="translate(0.5 0.5)">
    <path id="Path_63" data-name="Path 63" d="M1189.033,509.625h-4.268a.675.675,0,0,1-.763-.773q0-1.55,0-3.1v-2.617q0-1.544,0-3.088c0-.561.236-.8.788-.8h8.6c.537,0,.777.242.777.785q0,4.4,0,8.8c0,.544-.24.787-.776.787Zm-3.273-9.072a.493.493,0,0,0-.487.5v6.78a.493.493,0,0,0,.487.5h6.639a.492.492,0,0,0,.487-.5v-6.78a.492.492,0,0,0-.487-.5Z" transform="translate(-1184.001 -499.247)" fill="#ffa600" stroke="#ffa600" stroke-width="1"/>
    <path id="Path_64" data-name="Path 64" d="M1376.428,509.624c-.536,0-.775-.243-.775-.787q0-4.4,0-8.8c0-.542.24-.784.777-.785h8.595c.552,0,.788.24.788.8q0,4.389,0,8.778c0,.56-.236.8-.79.8h-8.6Zm.981-9.078a.493.493,0,0,0-.487.5v6.78a.492.492,0,0,0,.487.5h6.639a.492.492,0,0,0,.487-.5v-6.78a.492.492,0,0,0-.487-.5Z" transform="translate(-1361.814 -499.247)" fill="#ffa600" stroke="#ffa600" stroke-width="1"/>
    <path id="Path_65" data-name="Path 65" d="M1184.77,701.275c-.53,0-.767-.245-.767-.8q0-1.537,0-3.073v-2.665q0-1.52,0-3.04c0-.563.235-.8.785-.8h8.6c.547,0,.78.242.78.808q0,4.389,0,8.778c0,.547-.238.79-.772.791h-8.621Zm1-9.08a.492.492,0,0,0-.487.5v6.78a.492.492,0,0,0,.487.5h6.638a.492.492,0,0,0,.487-.5v-6.78a.492.492,0,0,0-.487-.5Z" transform="translate(-1184.002 -677.276)" fill="#ffa600" stroke="#ffa600" stroke-width="1"/>
    <path id="Path_66" data-name="Path 66" d="M1380.72,701.293a4.968,4.968,0,0,1-3.565-1.549,5.173,5.173,0,0,1-1.475-3.651,5.228,5.228,0,0,1,1.508-3.667,5.055,5.055,0,0,1,3.618-1.508h.017a4.922,4.922,0,0,1,3.528,1.536,5.2,5.2,0,0,1-3.61,8.84Zm.043-9.092a3.9,3.9,0,0,0-.044,7.8h.044a3.9,3.9,0,0,0,.051-7.8Z" transform="translate(-1361.84 -677.293)" fill="#ffa600" stroke="#ffa600" stroke-width="1"/>
  </g>
</svg>
