<svg id="Group_1404" data-name="Group 1404" xmlns="http://www.w3.org/2000/svg" width="14.663" height="16" viewBox="0 0 14.663 16">
  <path id="Path_465" data-name="Path 465" d="M415.067,137.56v7.4c0,.052,0,.1,0,.155-.009.316-.173.465-.482.424-.351-.046-.7-.1-1.051-.153l-2.764-.393-2.763-.4c-.836-.12-1.672-.242-2.51-.355a.748.748,0,0,1-.692-.723c0-.051,0-.1,0-.154q0-5.82,0-11.641a.741.741,0,0,1,.292-.71,1.715,1.715,0,0,1,.609-.192c1.1-.167,2.2-.32,3.305-.477l3.256-.46c.746-.106,1.493-.21,2.238-.324.4-.062.566.067.566.481Q415.067,133.8,415.067,137.56Zm-1.478-6.383-7.3,1.045v10.641l7.3,1.044Z" transform="translate(-404.8 -129.545)" fill="#0d142a"/>
  <path id="Path_466" data-name="Path 466" d="M520.539,157.5v-1.469h2.176V145.782H520.54V144.31h2.88a.726.726,0,0,1,.775.738c0,.046,0,.092,0,.137q0,5.717,0,11.434a1.254,1.254,0,0,1-.095.5.606.606,0,0,1-.556.375C522.547,157.5,521.552,157.5,520.539,157.5Z" transform="translate(-509.533 -142.906)" fill="#0d142a"/>
  <path id="Path_467" data-name="Path 467" d="M430.932,184.56,432.1,182.9h1.764l-2.045,2.924,2.043,2.92h-1.764l-1.162-1.657-1.167,1.661H428l2.046-2.924-2.042-2.92h1.764Z" transform="translate(-425.797 -177.825)" fill="#0d142a"/>
</svg>
