<svg xmlns="http://www.w3.org/2000/svg" xmlns:xlink="http://www.w3.org/1999/xlink" width="340.832" height="470.859" viewBox="0 0 340.832 470.859">
  <defs>
    <filter id="Rectangle_783" x="0" y="0" width="340.832" height="470.859" filterUnits="userSpaceOnUse">
      <feOffset dy="3" input="SourceAlpha"/>
      <feGaussianBlur stdDeviation="3" result="blur"/>
      <feFlood flood-opacity="0.161"/>
      <feComposite operator="in" in2="blur"/>
      <feComposite in="SourceGraphic"/>
    </filter>
    <clipPath id="clip-path">
      <rect id="Rectangle_785" data-name="Rectangle 785" width="323.663" height="453.689" fill="none"/>
    </clipPath>
  </defs>
  <g id="Group_2201" data-name="Group 2201" transform="translate(8.585 5.585)">
    <g transform="matrix(1, 0, 0, 1, -8.58, -5.58)" filter="url(#Rectangle_783)">
      <rect id="Rectangle_783-2" data-name="Rectangle 783" width="322.832" height="452.859" transform="translate(9 6)" fill="#fff"/>
    </g>
    <g id="Group_2198" data-name="Group 2198">
      <g id="Group_2197" data-name="Group 2197" clip-path="url(#clip-path)">
        <rect id="Rectangle_784" data-name="Rectangle 784" width="322.833" height="452.859" transform="translate(0.415 0.415)" fill="none"/>
      </g>
    </g>
    <text id="ROBIN_WOODS" data-name="ROBIN  WOODS" transform="translate(246.198 368.106)" fill="#1a1718" font-size="5" font-family="Calibri-Bold, Calibri" font-weight="700"><tspan x="0" y="0" letter-spacing="-0.009em">R</tspan><tspan y="0" xml:space="preserve">OBIN  </tspan><tspan y="0" letter-spacing="-0.012em">W</tspan><tspan y="0">OODS</tspan></text>
    <text id="Robin_Woods-2" data-name="Robin Woods" transform="translate(237.532 353.936)" fill="#323232" font-size="8" font-family="RageItalic, Rage"><tspan x="0" y="0">Robin Woods</tspan></text>
    <text id="ACCOUNTANTS" transform="translate(265.296 376.331)" fill="#6d6e71" font-size="3" font-family="Calibri"><tspan x="0" y="0" letter-spacing="-0.007em">A</tspan><tspan y="0">C</tspan><tspan y="0" letter-spacing="-0.009em">C</tspan><tspan y="0">OUN</tspan><tspan y="0" letter-spacing="-0.078em">T</tspan><tspan y="0">AN</tspan><tspan y="0" letter-spacing="-0.004em">T</tspan><tspan y="0">S</tspan></text>
    <text id="_720.00" data-name="$720.00" transform="translate(276.805 132.054)" fill="#6d6e71" font-size="2" font-family="Poppins-Regular, Poppins"><tspan x="0" y="0" letter-spacing="-0.001em">$</tspan><tspan y="0">7</tspan><tspan y="0" letter-spacing="-0.001em">2</tspan><tspan y="0">0.00</tspan></text>
    <text id="_720" data-name="₹ 720" transform="translate(238.357 132.627)" fill="#6d6e71" font-size="3" font-family="Poppins-Regular, Poppins" letter-spacing="-0.001em"><tspan x="0" y="0">₹ 720</tspan></text>
    <text id="_1" data-name="1" transform="translate(197.835 129.839)" fill="#1a1718" font-size="1" font-family="Poppins-Regular, Poppins"><tspan x="0" y="0">1</tspan></text>
    <text id="Power_Tool_Set_9_" data-name="Power Tool Set (9) " transform="translate(26.055 127.551)" fill="#1a1718" font-size="4" font-family="Poppins-Medium, Poppins" font-weight="500"><tspan x="0" y="0">Power Tool Set (9) </tspan></text>
    <text id="Dual_Trigger_Drill_Saggital_Saw_3_4_Drill_Attachment_with_Key" data-name="Dual Trigger Drill,Saggital Saw,3/4&quot; Drill Attachment with Key" transform="translate(26.121 137.087)" fill="#6d6e71" font-size="2" font-family="Poppins-Regular, Poppins"><tspan x="0" y="0">D</tspan><tspan y="0" letter-spacing="-0.001em">ua</tspan><tspan y="0">l</tspan><tspan y="0" letter-spacing="-0.001em"> </tspan><tspan y="0">Tri</tspan><tspan y="0" letter-spacing="-0.001em">gg</tspan><tspan y="0">er Drill</tspan><tspan y="0" letter-spacing="-0.001em">,</tspan><tspan y="0">S</tspan><tspan y="0" letter-spacing="-0.001em">ag</tspan><tspan y="0">gital</tspan><tspan y="0" letter-spacing="-0.001em"> </tspan><tspan y="0">Saw</tspan><tspan y="0" letter-spacing="-0.001em">,</tspan><tspan y="0">3/</tspan><tspan y="0" letter-spacing="-0.001em">4</tspan><tspan y="0">&quot; Drill</tspan><tspan y="0" xml:space="preserve" letter-spacing="-0.001em"> A</tspan><tspan y="0">tt</tspan><tspan y="0" letter-spacing="-0.001em">a</tspan><tspan y="0">c</tspan><tspan y="0" letter-spacing="-0.001em">hm</tspan><tspan y="0">e</tspan><tspan y="0" letter-spacing="-0.001em">n</tspan><tspan y="0">t</tspan><tspan y="0" letter-spacing="-0.001em"> </tspan><tspan y="0">with</tspan><tspan y="0" letter-spacing="-0.001em"> </tspan><tspan y="0">Key</tspan></text>
    <text id="Hudson_Reamer_Pin_Driver_Power_Modules_Charger_" data-name="Hudson Reamer, Pin Driver, Power Modules, Charger, " transform="translate(26.121 144.471)" fill="#6d6e71" font-size="2" font-family="Poppins-Regular, Poppins"><tspan x="0" y="0">H</tspan><tspan y="0" letter-spacing="-0.001em">ud</tspan><tspan y="0">s</tspan><tspan y="0" letter-spacing="-0.001em">o</tspan><tspan y="0">n</tspan><tspan y="0" letter-spacing="-0.001em"> </tspan><tspan y="0">R</tspan><tspan y="0" letter-spacing="-0.001em">e</tspan><tspan y="0">a</tspan><tspan y="0" letter-spacing="-0.001em">me</tspan><tspan y="0">r</tspan><tspan y="0" letter-spacing="-0.001em">, </tspan><tspan y="0">Pin</tspan><tspan y="0" letter-spacing="-0.001em"> </tspan><tspan y="0">Driver</tspan><tspan y="0" letter-spacing="-0.001em">, P</tspan><tspan y="0">ower M</tspan><tspan y="0" letter-spacing="-0.001em">o</tspan><tspan y="0">dules</tspan><tspan y="0" letter-spacing="-0.001em">,</tspan><tspan y="0" xml:space="preserve"> C</tspan><tspan y="0" letter-spacing="-0.001em">h</tspan><tspan y="0">arger</tspan><tspan y="0" letter-spacing="-0.001em">,</tspan><tspan y="0"> </tspan></text>
    <text id="Transfer_Shield_Sterilization_Case" data-name="Transfer Shield, Sterilization Case" transform="translate(26.121 152.333)" fill="#6d6e71" font-size="2" font-family="Poppins-Regular, Poppins"><tspan x="0" y="0">Tr</tspan><tspan y="0" letter-spacing="-0.001em">a</tspan><tspan y="0">nsfer S</tspan><tspan y="0" letter-spacing="-0.001em">h</tspan><tspan y="0">i</tspan><tspan y="0" letter-spacing="-0.001em">e</tspan><tspan y="0">ld</tspan><tspan y="0" letter-spacing="-0.001em">, </tspan><tspan y="0">St</tspan><tspan y="0" letter-spacing="-0.001em">e</tspan><tspan y="0">riliza</tspan><tspan y="0" letter-spacing="-0.001em">t</tspan><tspan y="0">i</tspan><tspan y="0" letter-spacing="-0.001em">on </tspan><tspan y="0">Case</tspan></text>
    <rect id="Rectangle_786" data-name="Rectangle 786" width="322.832" height="16.047" transform="translate(0.415 104.302)" fill="#f89e19"/>
    <text id="INVOICE" transform="translate(212.731 40.194)" fill="#1a1718" font-size="21" font-family="Poppins-Bold, Poppins" font-weight="700"><tspan x="0" y="0">IN</tspan><tspan y="0" letter-spacing="-0.019em">V</tspan><tspan y="0">OICE</tspan></text>
    <text id="ITEM_DESCRIPTION" data-name="ITEM DESCRIPTION" transform="translate(25.99 112.608)" fill="#fff" font-size="4" font-family="Poppins-Medium, Poppins" font-weight="500"><tspan x="0" y="0">ITEM DESCRIPTION</tspan></text>
    <text id="TOTAL" transform="translate(277.333 112.608)" fill="#fff" font-size="4" font-family="Poppins-Medium, Poppins" font-weight="500"><tspan x="0" y="0">TOTAL</tspan></text>
    <text id="PRICE" transform="translate(235.125 112.608)" fill="#fff" font-size="4" font-family="Poppins-Medium, Poppins" font-weight="500"><tspan x="0" y="0">PRICE</tspan></text>
    <text id="QTY" transform="translate(193.366 112.608)" fill="#fff" font-size="4" font-family="Poppins-Medium, Poppins" font-weight="500"><tspan x="0" y="0">QTY</tspan></text>
    <rect id="Rectangle_787" data-name="Rectangle 787" width="322.765" height="67.003" transform="translate(0.483 269.07)" fill="#f0fdff"/>
    <line id="Line_226" data-name="Line 226" x2="25.214" transform="translate(272.394 425.693)" fill="none"/>
    <line id="Line_227" data-name="Line 227" x2="271.551" transform="translate(26.056 51.793)" fill="none"/>
    <line id="Line_228" data-name="Line 228" x2="80.927" transform="translate(216.68 51.793)" fill="none"/>
    <line id="Line_229" data-name="Line 229" x2="271.551" transform="translate(26.056 410.455)" fill="none"/>
    <text id="Sub-Total:" transform="translate(224.655 282.269)" fill="#1a1718" font-size="4" font-family="Poppins-Regular, Poppins"><tspan x="0" y="0">Sub-Total:</tspan></text>
    <text id="Tax_Vat_15_:" data-name="Tax Vat (15%):" transform="translate(216.59 294.531)" fill="#1a1718" font-size="4" font-family="Poppins-Regular, Poppins"><tspan x="0" y="0">Tax Vat (15%):</tspan></text>
    <text id="Terms_Condition:" data-name="Terms &amp; Condition:" transform="translate(26.121 285.116)" fill="#4a6172" font-size="4" font-family="Poppins-Regular, Poppins"><tspan x="0" y="0">Terms &amp; Condition:</tspan></text>
    <text id="_" data-name="₹" transform="translate(252.671 281.398)" fill="#1a1718" font-size="3" font-family="Poppins-Regular, Poppins"><tspan x="0" y="0">₹</tspan></text>
    <text id="_3380.00" data-name="3380.00" transform="translate(274.32 282.398)" fill="#1a1718" font-size="4" font-family="Poppins-Regular, Poppins"><tspan x="0" y="0">3380.00</tspan></text>
    <text id="_2" data-name="₹ " transform="translate(252.671 294.533)" fill="#1a1718" font-size="4" font-family="Poppins-Regular, Poppins"><tspan x="0" y="0">₹ </tspan></text>
    <text id="_507.00" data-name="507.00" transform="translate(277.716 294.533)" fill="#1a1718" font-size="4" font-family="Poppins-Regular, Poppins"><tspan x="0" y="0">507.00</tspan></text>
    <text id="Grand_Total:" data-name="Grand Total:" transform="translate(214.892 319.776)" fill="#1a1718" font-size="5" font-family="Poppins-Regular, Poppins"><tspan x="0" y="0">Grand Total:</tspan></text>
    <text id="_3" data-name="₹ " transform="translate(252.671 318.475)" fill="#1a1718" font-size="4" font-family="Poppins-Regular, Poppins"><tspan x="0" y="0">₹ </tspan></text>
    <text id="_4056.00" data-name="4056.00" transform="translate(270.5 319.475)" fill="#1a1718" font-size="5" font-family="Poppins-Regular, Poppins"><tspan x="0" y="0">4056.00</tspan></text>
    <text id="Discount_5_:" data-name="Discount (5%):" transform="translate(214.468 306.391)" fill="#1a1718" font-size="4" font-family="Poppins-Regular, Poppins"><tspan x="0" y="0">Discount (5%):</tspan></text>
    <text id="_4" data-name="₹ " transform="translate(252.671 306.391)" fill="#1a1718" font-size="4" font-family="Poppins-Regular, Poppins"><tspan x="0" y="0">₹ </tspan></text>
    <text id="_169.00" data-name="169.00" transform="translate(278.565 306.391)" fill="#1a1718" font-size="4" font-family="Poppins-Regular, Poppins"><tspan x="0" y="0">169.00</tspan></text>
    <text id="Paypal:" transform="translate(25.148 359.013)" fill="#1a1718" font-size="2" font-family="Calibri-Bold, Calibri" font-weight="700"><tspan x="0" y="0" letter-spacing="-0.019em">P</tspan><tspan y="0" letter-spacing="-0.018em">a</tspan><tspan y="0">ypal:</tspan></text>
    <text id="_5" data-name=" " transform="translate(40.298 358.013)" fill="#1a1718" font-size="1" font-family="Calibri"><tspan x="0" y="0"> </tspan></text>
    <text id="paypalcompany.com" transform="translate(41.278 359.013)" fill="#6d6e71" font-size="2" font-family="Calibri"><tspan x="0" y="0">p</tspan><tspan y="0" letter-spacing="-0.018em">a</tspan><tspan y="0">ypal</tspan><tspan y="0" letter-spacing="-0.008em">c</tspan><tspan y="0">ompa</tspan><tspan y="0" letter-spacing="-0.018em">n</tspan><tspan y="0" letter-spacing="-0.065em">y</tspan><tspan y="0">.</tspan><tspan y="0" letter-spacing="-0.008em">c</tspan><tspan y="0">om</tspan></text>
    <text id="Payment:" transform="translate(25.148 366.544)" fill="#1a1718" font-size="2" font-family="Calibri-Bold, Calibri" font-weight="700"><tspan x="0" y="0" letter-spacing="-0.019em">P</tspan><tspan y="0" letter-spacing="-0.018em">a</tspan><tspan y="0">yme</tspan><tspan y="0" letter-spacing="-0.009em">n</tspan><tspan y="0">t:</tspan></text>
    <text id="_6" data-name=" " transform="translate(44.632 365.544)" fill="#1a1718" font-size="1" font-family="Calibri"><tspan x="0" y="0"> </tspan></text>
    <text id="Visa_Master_Card_We_accept_Cheque_" data-name="Visa, Master Card We accept Cheque " transform="translate(41.278 366.544)" fill="#6d6e71" font-size="2" font-family="Calibri"><tspan x="0" y="0">Visa, Ma</tspan><tspan y="0" letter-spacing="-0.011em">s</tspan><tspan y="0" letter-spacing="-0.01em">t</tspan><tspan y="0">er Ca</tspan><tspan y="0" letter-spacing="-0.013em">r</tspan><tspan y="0">d </tspan><tspan y="0" letter-spacing="-0.036em">W</tspan><tspan y="0">e acce</tspan><tspan y="0" letter-spacing="-0.004em">p</tspan><tspan y="0">t Cheque </tspan></text>
    <text id="Payment_Method:" data-name="Payment Method:" transform="translate(25.148 347.095)" fill="#6d6e71" font-size="3" font-family="Calibri-Bold, Calibri" font-weight="700"><tspan x="0" y="0" letter-spacing="-0.018em">Pa</tspan><tspan y="0">yme</tspan><tspan y="0" letter-spacing="-0.009em">n</tspan><tspan y="0">t M</tspan><tspan y="0" letter-spacing="-0.006em">e</tspan><tspan y="0">thod:</tspan></text>
    <text id="_7" data-name=" " transform="translate(272.308 63.129)" fill="#1a1718" font-size="1" font-family="Calibri"><tspan x="0" y="0"> </tspan></text>
    <text id="_8" data-name=" " transform="translate(273.381 63.129)" fill="#1a1718" font-size="1" font-family="Calibri-Bold, Calibri" font-weight="700"><tspan x="0" y="0"> </tspan></text>
    <text id="Due_Date:" data-name="Due  Date:" transform="translate(276.517 63.701)" fill="#6d6e71" font-size="3" font-family="Poppins-Regular, Poppins"><tspan x="0" y="0" xml:space="preserve">Due  D</tspan><tspan y="0" letter-spacing="-0.009em">a</tspan><tspan y="0" letter-spacing="-0.01em">t</tspan><tspan y="0">e:</tspan></text>
    <text id="_10_01_2021" data-name="10 / 01 / 2021" transform="translate(276.517 68.945)" fill="#1a1718" font-size="3" font-family="Poppins-Regular, Poppins"><tspan x="0" y="0">10 / 01 / 2021</tspan></text>
    <text id="Invoice_Date:" data-name="Invoice Date:" transform="translate(223.717 63.711)" fill="#6d6e71" font-size="3" font-family="Poppins-Regular, Poppins"><tspan x="0" y="0">I</tspan><tspan y="0" letter-spacing="-0.016em">n</tspan><tspan y="0" letter-spacing="-0.009em">v</tspan><tspan y="0">oice D</tspan><tspan y="0" letter-spacing="-0.009em">a</tspan><tspan y="0" letter-spacing="-0.01em">t</tspan><tspan y="0">e:</tspan></text>
    <text id="_01_01_2021" data-name="01 / 01 / 2021" transform="translate(223.717 68.955)" fill="#1a1718" font-size="3" font-family="Poppins-Regular, Poppins"><tspan x="0" y="0">01 / 01 / 2021</tspan></text>
    <text id="_9" data-name=" " transform="translate(182.441 63.127)" fill="#1a1718" font-size="1" font-family="Calibri"><tspan x="0" y="0"> </tspan></text>
    <text id="Invoice_No." data-name="Invoice No." transform="translate(170.879 64.17)" fill="#6d6e71" font-size="3" font-family="Poppins-Regular, Poppins"><tspan x="0" y="0">I</tspan><tspan y="0" letter-spacing="-0.016em">n</tspan><tspan y="0" letter-spacing="-0.009em">v</tspan><tspan y="0">oice No.</tspan></text>
    <text id="_12344" data-name="#12344" transform="translate(170.879 69.542)" fill="#1a1718" font-size="3" font-family="Poppins-Regular, Poppins"><tspan x="0" y="0">#12344</tspan></text>
    <text id="Invoice_To:" data-name="Invoice To:" transform="translate(25.951 35.369)" fill="#6d6e71" font-size="4" font-family="Poppins-Bold, Poppins" font-weight="700"><tspan x="0" y="0">I</tspan><tspan y="0" letter-spacing="-0.014em">n</tspan><tspan y="0" letter-spacing="-0.009em">v</tspan><tspan y="0">oice </tspan><tspan y="0" letter-spacing="-0.086em">T</tspan><tspan y="0">o:</tspan></text>
    <text id="Global_Hospital" data-name="Global Hospital" transform="translate(25.951 43.51)" fill="#1a1718" font-size="5" font-family="Poppins-Bold, Poppins" font-weight="700"><tspan x="0" y="0">Global Hospital</tspan></text>
    <text id="_10" data-name=" " transform="translate(29.681 63.885)" fill="#6d6e71" font-size="1" font-family="Calibri-Bold, Calibri" font-weight="700"><tspan x="0" y="0"> </tspan></text>
    <text id="_11" data-name=" " transform="translate(30.241 69.684)" fill="#6d6e71" font-size="1" font-family="Calibri-Bold, Calibri" font-weight="700"><tspan x="0" y="0"> </tspan></text>
    <g id="Group_2241" data-name="Group 2241" transform="translate(25.951)">
      <g id="Group_2240" data-name="Group 2240" transform="translate(-27.708 11.402)">
        <text id="_2487_Cimmaron_Road_US" data-name="2487 Cimmaron Road,, US" transform="translate(37.708 70.684)" fill="#6d6e71" font-size="2" font-family="Poppins-Regular, Poppins"><tspan x="0" y="0">2487 Cimma</tspan><tspan y="0" letter-spacing="-0.016em">r</tspan><tspan y="0">on </tspan><tspan y="0" letter-spacing="-0.02em">R</tspan><tspan y="0">oad,, US</tspan></text>
        <text id="A:" transform="translate(27.708 70.684)" fill="#1a1718" font-size="2" font-family="Poppins-Bold, Poppins" font-weight="700"><tspan x="0" y="0">A:</tspan></text>
      </g>
      <g id="Group_2239" data-name="Group 2239" transform="translate(-27.708 5.201)">
        <text id="yourmail0123_email.com" data-name="yourmail0123@email.com" transform="translate(37.708 64.885)" fill="#6d6e71" font-size="2" font-family="Poppins-Regular, Poppins"><tspan x="0" y="0" letter-spacing="-0.011em">y</tspan><tspan y="0">ourmail0123@email.</tspan><tspan y="0" letter-spacing="-0.008em">c</tspan><tspan y="0">om</tspan></text>
        <text id="E:" transform="translate(27.708 65.885)" fill="#1a1718" font-size="3" font-family="Poppins-Bold, Poppins" font-weight="700"><tspan x="0" y="0">E:</tspan></text>
      </g>
      <g id="Group_2238" data-name="Group 2238" transform="translate(-27.708)">
        <text id="_039_123_456_7890" data-name=" +039  123  456 7890" transform="translate(37.708 59.087)" fill="#6d6e71" font-size="2" font-family="Poppins-Regular, Poppins"><tspan x="0" y="0" xml:space="preserve"> +039  123  456 7890</tspan></text>
        <text id="P:" transform="translate(27.708 59.087)" fill="#1a1718" font-size="2" font-family="Poppins-Bold, Poppins" font-weight="700"><tspan x="0" y="0">P:</tspan></text>
      </g>
    </g>
    <line id="Line_230" data-name="Line 230" x2="322.519" transform="translate(0.572 157.717)" fill="none"/>
    <text id="Instruments_Set_9_" data-name="Instruments Set (9)" transform="translate(26.055 171.503)" fill="#1a1718" font-size="4" font-family="Poppins-Medium, Poppins" font-weight="500"><tspan x="0" y="0">Instruments Set (9)</tspan></text>
    <text id="_1_4_6.4mm_Locking_keyless_chuck" data-name="1/4&quot; (6.4mm) Locking keyless chuck" transform="translate(26.121 184.312)" fill="#6d6e71" font-size="2" font-family="Poppins-Regular, Poppins"><tspan x="0" y="0">1/</tspan><tspan y="0" letter-spacing="-0.001em">4</tspan><tspan y="0">&quot;</tspan><tspan y="0" letter-spacing="-0.001em"> </tspan><tspan y="0">(6.</tspan><tspan y="0" letter-spacing="-0.001em">4mm</tspan><tspan y="0">)</tspan><tspan y="0" letter-spacing="-0.001em"> </tspan><tspan y="0">L</tspan><tspan y="0" letter-spacing="-0.001em">o</tspan><tspan y="0">c</tspan><tspan y="0" letter-spacing="-0.001em">k</tspan><tspan y="0">i</tspan><tspan y="0" letter-spacing="-0.001em">n</tspan><tspan y="0">g</tspan><tspan y="0" xml:space="preserve" letter-spacing="-0.001em"> ke</tspan><tspan y="0">yless</tspan><tspan y="0" xml:space="preserve" letter-spacing="-0.001em"> ch</tspan><tspan y="0">uck</tspan></text>
    <text id="_5_32_4.0mm_Locking_keyless_chuck" data-name="5/32&quot; (4.0mm) Locking keyless chuck" transform="translate(26.121 191.696)" fill="#6d6e71" font-size="2" font-family="Poppins-Regular, Poppins"><tspan x="0" y="0">5</tspan><tspan y="0" letter-spacing="-0.001em">/</tspan><tspan y="0">3</tspan><tspan y="0" letter-spacing="-0.001em">2</tspan><tspan y="0">&quot; </tspan><tspan y="0" letter-spacing="-0.001em">(</tspan><tspan y="0">4.0</tspan><tspan y="0" letter-spacing="-0.001em">mm</tspan><tspan y="0">)</tspan><tspan y="0" letter-spacing="-0.001em"> </tspan><tspan y="0">L</tspan><tspan y="0" letter-spacing="-0.001em">o</tspan><tspan y="0">c</tspan><tspan y="0" letter-spacing="-0.001em">k</tspan><tspan y="0">i</tspan><tspan y="0" letter-spacing="-0.001em">ng </tspan><tspan y="0">k</tspan><tspan y="0" letter-spacing="-0.001em">e</tspan><tspan y="0">yl</tspan><tspan y="0" letter-spacing="-0.001em">e</tspan><tspan y="0">ss</tspan><tspan y="0" xml:space="preserve" letter-spacing="-0.001em"> c</tspan><tspan y="0">hu</tspan><tspan y="0" letter-spacing="-0.001em">c</tspan><tspan y="0">k</tspan></text>
    <text id="PoweReam_large_AO" data-name="PoweReam large AO" transform="translate(26.121 199.558)" fill="#6d6e71" font-size="2" font-family="Poppins-Regular, Poppins"><tspan x="0" y="0">P</tspan><tspan y="0" letter-spacing="-0.001em">o</tspan><tspan y="0">w</tspan><tspan y="0" letter-spacing="-0.001em">e</tspan><tspan y="0">R</tspan><tspan y="0" letter-spacing="-0.001em">eam</tspan><tspan y="0" xml:space="preserve"> l</tspan><tspan y="0" letter-spacing="-0.001em">a</tspan><tspan y="0">rg</tspan><tspan y="0" letter-spacing="-0.001em">e A</tspan><tspan y="0">O</tspan></text>
    <text id="PoweReam_Hudson" data-name="PoweReam Hudson" transform="translate(26.121 206.464)" fill="#6d6e71" font-size="2" font-family="Poppins-Regular, Poppins"><tspan x="0" y="0">P</tspan><tspan y="0" letter-spacing="-0.001em">o</tspan><tspan y="0">w</tspan><tspan y="0" letter-spacing="-0.001em">e</tspan><tspan y="0">R</tspan><tspan y="0" letter-spacing="-0.001em">eam</tspan><tspan y="0" xml:space="preserve"> Huds</tspan><tspan y="0" letter-spacing="-0.001em">o</tspan><tspan y="0">n</tspan></text>
    <text id="PoweReam_1_4_chuck_with_key" data-name="PoweReam 1/4&quot; chuck with key" transform="translate(26.121 213.847)" fill="#6d6e71" font-size="2" font-family="Poppins-Regular, Poppins"><tspan x="0" y="0">P</tspan><tspan y="0" letter-spacing="-0.001em">o</tspan><tspan y="0">w</tspan><tspan y="0" letter-spacing="-0.001em">e</tspan><tspan y="0">R</tspan><tspan y="0" letter-spacing="-0.001em">eam</tspan><tspan y="0" xml:space="preserve"> 1</tspan><tspan y="0" letter-spacing="-0.001em">/</tspan><tspan y="0">4&quot;</tspan><tspan y="0" xml:space="preserve" letter-spacing="-0.001em"> c</tspan><tspan y="0">h</tspan><tspan y="0" letter-spacing="-0.001em">uck </tspan><tspan y="0">wit</tspan><tspan y="0" letter-spacing="-0.001em">h k</tspan><tspan y="0">ey</tspan></text>
    <text id="PoweReam_Hudson_modified_trinkle" data-name="PoweReam Hudson modified trinkle" transform="translate(26.121 221.709)" fill="#6d6e71" font-size="2" font-family="Poppins-Regular, Poppins"><tspan x="0" y="0">P</tspan><tspan y="0" letter-spacing="-0.001em">o</tspan><tspan y="0">w</tspan><tspan y="0" letter-spacing="-0.001em">e</tspan><tspan y="0">R</tspan><tspan y="0" letter-spacing="-0.001em">eam</tspan><tspan y="0" xml:space="preserve"> Huds</tspan><tspan y="0" letter-spacing="-0.001em">on m</tspan><tspan y="0">o</tspan><tspan y="0" letter-spacing="-0.001em">d</tspan><tspan y="0">ifi</tspan><tspan y="0" letter-spacing="-0.001em">e</tspan><tspan y="0">d</tspan><tspan y="0" xml:space="preserve" letter-spacing="-0.001em"> t</tspan><tspan y="0">rinkle</tspan></text>
    <text id="PoweReam_trinkle" data-name="PoweReam trinkle" transform="translate(26.121 229.093)" fill="#6d6e71" font-size="2" font-family="Poppins-Regular, Poppins"><tspan x="0" y="0">P</tspan><tspan y="0" letter-spacing="-0.001em">o</tspan><tspan y="0">w</tspan><tspan y="0" letter-spacing="-0.001em">e</tspan><tspan y="0">R</tspan><tspan y="0" letter-spacing="-0.001em">eam</tspan><tspan y="0" xml:space="preserve"> trinkle</tspan></text>
    <text id="Adjustable_pin_collet_2.0_-_3.2mm" data-name="Adjustable pin collet 2.0 - 3.2mm" transform="translate(26.121 235.998)" fill="#6d6e71" font-size="2" font-family="Poppins-Regular, Poppins"><tspan x="0" y="0" letter-spacing="-0.001em">Ad</tspan><tspan y="0">just</tspan><tspan y="0" letter-spacing="-0.001em">a</tspan><tspan y="0">ble </tspan><tspan y="0" letter-spacing="-0.001em">p</tspan><tspan y="0">in</tspan><tspan y="0" xml:space="preserve" letter-spacing="-0.001em"> co</tspan><tspan y="0">ll</tspan><tspan y="0" letter-spacing="-0.001em">e</tspan><tspan y="0">t</tspan><tspan y="0" xml:space="preserve" letter-spacing="-0.001em"> 2</tspan><tspan y="0">.0</tspan><tspan y="0" xml:space="preserve" letter-spacing="-0.001em"> - </tspan><tspan y="0">3.</tspan><tspan y="0" letter-spacing="-0.001em">2m</tspan><tspan y="0">m</tspan></text>
    <text id="Wire_collet_0.7_-_1.8mm" data-name="Wire collet 0.7 - 1.8mm" transform="translate(26.121 243.855)" fill="#6d6e71" font-size="2" font-family="Poppins-Regular, Poppins"><tspan x="0" y="0">Wire</tspan><tspan y="0" letter-spacing="-0.001em"> </tspan><tspan y="0">c</tspan><tspan y="0" letter-spacing="-0.001em">o</tspan><tspan y="0">llet 0.7</tspan><tspan y="0" letter-spacing="-0.001em"> </tspan><tspan y="0">-</tspan><tspan y="0" letter-spacing="-0.001em"> </tspan><tspan y="0">1.</tspan><tspan y="0" letter-spacing="-0.001em">8m</tspan><tspan y="0">m</tspan></text>
    <text id="Pin_collet_2.0_-_3.2mm" data-name="Pin collet 2.0 - 3.2mm" transform="translate(26.121 251.24)" fill="#6d6e71" font-size="2" font-family="Poppins-Regular, Poppins"><tspan x="0" y="0">Pi</tspan><tspan y="0" letter-spacing="-0.001em">n</tspan><tspan y="0" xml:space="preserve"> coll</tspan><tspan y="0" letter-spacing="-0.001em">e</tspan><tspan y="0">t </tspan><tspan y="0" letter-spacing="-0.001em">2</tspan><tspan y="0">.0</tspan><tspan y="0" xml:space="preserve" letter-spacing="-0.001em"> - </tspan><tspan y="0">3.</tspan><tspan y="0" letter-spacing="-0.001em">2m</tspan><tspan y="0">m</tspan></text>
    <text id="Pin_collet_3.0_-_4.2mm" data-name="Pin collet 3.0 - 4.2mm" transform="translate(26.121 258.14)" fill="#6d6e71" font-size="2" font-family="Poppins-Regular, Poppins"><tspan x="0" y="0">Pi</tspan><tspan y="0" letter-spacing="-0.001em">n</tspan><tspan y="0" xml:space="preserve"> coll</tspan><tspan y="0" letter-spacing="-0.001em">e</tspan><tspan y="0">t 3.0</tspan><tspan y="0" letter-spacing="-0.001em"> </tspan><tspan y="0">-</tspan><tspan y="0" xml:space="preserve" letter-spacing="-0.001em"> 4</tspan><tspan y="0">.</tspan><tspan y="0" letter-spacing="-0.001em">2m</tspan><tspan y="0">m</tspan></text>
    <text id="_1-2" data-name="1" transform="translate(199.025 183.322)" fill="#6d6e71" font-size="1" font-family="Poppins-Regular, Poppins"><tspan x="0" y="0">1</tspan></text>
    <text id="_1-3" data-name="1" transform="translate(199.025 190.706)" fill="#6d6e71" font-size="1" font-family="Poppins-Regular, Poppins"><tspan x="0" y="0">1</tspan></text>
    <text id="_1-4" data-name="1" transform="translate(199.025 198.089)" fill="#6d6e71" font-size="1" font-family="Poppins-Regular, Poppins"><tspan x="0" y="0">1</tspan></text>
    <text id="_1-5" data-name="1" transform="translate(199.025 205.473)" fill="#6d6e71" font-size="1" font-family="Poppins-Regular, Poppins"><tspan x="0" y="0">1</tspan></text>
    <text id="_1-6" data-name="1" transform="translate(199.025 212.857)" fill="#6d6e71" font-size="1" font-family="Poppins-Regular, Poppins"><tspan x="0" y="0">1</tspan></text>
    <text id="_2-2" data-name="2" transform="translate(199.025 221.241)" fill="#6d6e71" font-size="2" font-family="Poppins-Regular, Poppins"><tspan x="0" y="0">2</tspan></text>
    <text id="_1-7" data-name="1" transform="translate(199.025 227.624)" fill="#6d6e71" font-size="1" font-family="Poppins-Regular, Poppins"><tspan x="0" y="0">1</tspan></text>
    <text id="_2-3" data-name="2" transform="translate(199.025 236.008)" fill="#6d6e71" font-size="2" font-family="Poppins-Regular, Poppins"><tspan x="0" y="0">2</tspan></text>
    <text id="_1-8" data-name="1" transform="translate(199.025 242.387)" fill="#6d6e71" font-size="1" font-family="Poppins-Regular, Poppins"><tspan x="0" y="0">1</tspan></text>
    <text id="_1-9" data-name="1" transform="translate(199.025 249.77)" fill="#6d6e71" font-size="1" font-family="Poppins-Regular, Poppins"><tspan x="0" y="0">1</tspan></text>
    <text id="_1-10" data-name="1" transform="translate(199.025 257.15)" fill="#6d6e71" font-size="1" font-family="Poppins-Regular, Poppins"><tspan x="0" y="0">1</tspan></text>
    <text id="_720-2" data-name="₹ 720" transform="translate(238.07 177.664)" fill="#6d6e71" font-size="3" font-family="Poppins-Regular, Poppins"><tspan x="0" y="0" letter-spacing="-0.001em">₹ </tspan><tspan y="0">7</tspan><tspan y="0" letter-spacing="-0.001em">2</tspan><tspan y="0">0</tspan></text>
    <text id="_720-3" data-name="₹ 720" transform="translate(238.07 185.047)" fill="#6d6e71" font-size="3" font-family="Poppins-Regular, Poppins" letter-spacing="-0.001em"><tspan x="0" y="0">₹ 720</tspan></text>
    <text id="_720-4" data-name="₹ 720" transform="translate(238.07 192.431)" fill="#6d6e71" font-size="3" font-family="Poppins-Regular, Poppins" letter-spacing="-0.001em"><tspan x="0" y="0">₹ 720</tspan></text>
    <text id="_720-5" data-name="₹ 720" transform="translate(238.07 199.815)" fill="#6d6e71" font-size="3" font-family="Poppins-Regular, Poppins" letter-spacing="-0.001em"><tspan x="0" y="0">₹ 720</tspan></text>
    <text id="_720-6" data-name="₹ 720" transform="translate(238.07 207.199)" fill="#6d6e71" font-size="3" font-family="Poppins-Regular, Poppins" letter-spacing="-0.001em"><tspan x="0" y="0">₹ 720</tspan></text>
    <text id="_720-7" data-name="₹ 720" transform="translate(238.07 214.582)" fill="#6d6e71" font-size="3" font-family="Poppins-Regular, Poppins" letter-spacing="-0.001em"><tspan x="0" y="0">₹ 720</tspan></text>
    <text id="_720-8" data-name="₹ 720" transform="translate(238.07 221.966)" fill="#6d6e71" font-size="3" font-family="Poppins-Regular, Poppins" letter-spacing="-0.001em"><tspan x="0" y="0">₹ 720</tspan></text>
    <text id="_720-9" data-name="₹ 720" transform="translate(238.07 229.35)" fill="#6d6e71" font-size="3" font-family="Poppins-Regular, Poppins" letter-spacing="-0.001em"><tspan x="0" y="0">₹ 720</tspan></text>
    <text id="_720-10" data-name="₹ 720" transform="translate(238.07 236.729)" fill="#6d6e71" font-size="3" font-family="Poppins-Regular, Poppins" letter-spacing="-0.001em"><tspan x="0" y="0">₹ 720</tspan></text>
    <text id="_720-11" data-name="₹ 720" transform="translate(238.07 244.112)" fill="#6d6e71" font-size="3" font-family="Poppins-Regular, Poppins" letter-spacing="-0.001em"><tspan x="0" y="0">₹ 720</tspan></text>
    <text id="_720-12" data-name="₹ 720" transform="translate(238.07 251.491)" fill="#6d6e71" font-size="3" font-family="Poppins-Regular, Poppins" letter-spacing="-0.001em"><tspan x="0" y="0">₹ 720</tspan></text>
    <text id="_720-13" data-name="₹ 720" transform="translate(276.517 177.673)" fill="#6d6e71" font-size="3" font-family="Poppins-Regular, Poppins" letter-spacing="-0.001em"><tspan x="0" y="0">₹ 720</tspan></text>
    <text id="_720-14" data-name="₹ 720" transform="translate(276.517 185.057)" fill="#6d6e71" font-size="3" font-family="Poppins-Regular, Poppins" letter-spacing="-0.001em"><tspan x="0" y="0">₹ 720</tspan></text>
    <text id="_720-15" data-name="₹ 720" transform="translate(276.517 192.441)" fill="#6d6e71" font-size="3" font-family="Poppins-Regular, Poppins" letter-spacing="-0.001em"><tspan x="0" y="0">₹ 720</tspan></text>
    <text id="_720-16" data-name="₹ 720" transform="translate(276.517 199.824)" fill="#6d6e71" font-size="3" font-family="Poppins-Regular, Poppins" letter-spacing="-0.001em"><tspan x="0" y="0">₹ 720</tspan></text>
    <text id="_720-17" data-name="₹ 720" transform="translate(276.517 207.208)" fill="#6d6e71" font-size="3" font-family="Poppins-Regular, Poppins" letter-spacing="-0.001em"><tspan x="0" y="0">₹ 720</tspan></text>
    <text id="_720-18" data-name="₹ 720" transform="translate(276.517 214.592)" fill="#6d6e71" font-size="3" font-family="Poppins-Regular, Poppins" letter-spacing="-0.001em"><tspan x="0" y="0">₹ 720</tspan></text>
    <text id="_720-19" data-name="₹ 720" transform="translate(276.517 221.976)" fill="#6d6e71" font-size="3" font-family="Poppins-Regular, Poppins" letter-spacing="-0.001em"><tspan x="0" y="0">₹ 720</tspan></text>
    <text id="_720-20" data-name="₹ 720" transform="translate(276.517 229.359)" fill="#6d6e71" font-size="3" font-family="Poppins-Regular, Poppins" letter-spacing="-0.001em"><tspan x="0" y="0">₹ 720</tspan></text>
    <text id="_720-21" data-name="₹ 720" transform="translate(276.517 236.738)" fill="#6d6e71" font-size="3" font-family="Poppins-Regular, Poppins" letter-spacing="-0.001em"><tspan x="0" y="0">₹ 720</tspan></text>
    <text id="_720-22" data-name="₹ 720" transform="translate(276.517 244.122)" fill="#6d6e71" font-size="3" font-family="Poppins-Regular, Poppins" letter-spacing="-0.001em"><tspan x="0" y="0">₹ 720</tspan></text>
    <text id="_720-23" data-name="₹ 720" transform="translate(276.517 251.501)" fill="#6d6e71" font-size="3" font-family="Poppins-Regular, Poppins" letter-spacing="-0.001em"><tspan x="0" y="0">₹ 720</tspan></text>
    <text id="Thank_You_For_Your_Business_" data-name="Thank You For Your Business !" transform="translate(233.809 418.152)" fill="#f67d0f" font-size="3" font-family="Calibri-Bold, Calibri" font-weight="700"><tspan x="0" y="0">Thank </tspan><tspan y="0" letter-spacing="-0.08em">Y</tspan><tspan y="0">ou </tspan><tspan y="0" letter-spacing="-0.012em">F</tspan><tspan y="0">or </tspan><tspan y="0" letter-spacing="-0.08em">Y</tspan><tspan y="0">our Business !</tspan></text>
    <text id="_081_301_039_0379" data-name="081  301  039  0379" transform="translate(39.336 418.548)" fill="#6d6e71" font-size="2" font-family="FiraSansCondensed-Regular, Fira Sans"><tspan x="0" y="0" letter-spacing="-0.001em">0</tspan><tspan y="0" letter-spacing="-0.026em">8</tspan><tspan y="0" xml:space="preserve">1  3</tspan><tspan y="0" letter-spacing="-0.026em">0</tspan><tspan y="0" xml:space="preserve">1  </tspan><tspan y="0" letter-spacing="-0.01em">0</tspan><tspan y="0" letter-spacing="-0.009em">3</tspan><tspan y="0" xml:space="preserve">9  </tspan><tspan y="0" letter-spacing="-0.01em">0</tspan><tspan y="0" letter-spacing="-0.005em">3</tspan><tspan y="0" letter-spacing="-0.014em">7</tspan><tspan y="0">9</tspan></text>
    <text id="_081_301_039_0379-2" data-name="081  301  039  0379" transform="translate(39.336 423.293)" fill="#6d6e71" font-size="2" font-family="FiraSansCondensed-Regular, Fira Sans"><tspan x="0" y="0" letter-spacing="-0.001em">0</tspan><tspan y="0" letter-spacing="-0.026em">8</tspan><tspan y="0" xml:space="preserve">1  3</tspan><tspan y="0" letter-spacing="-0.026em">0</tspan><tspan y="0" xml:space="preserve">1  </tspan><tspan y="0" letter-spacing="-0.01em">0</tspan><tspan y="0" letter-spacing="-0.009em">3</tspan><tspan y="0" xml:space="preserve">9  </tspan><tspan y="0" letter-spacing="-0.01em">0</tspan><tspan y="0" letter-spacing="-0.005em">3</tspan><tspan y="0" letter-spacing="-0.014em">7</tspan><tspan y="0">9</tspan></text>
    <text id="www.yourdomain.com" transform="translate(97.186 418.548)" fill="#6d6e71" font-size="2" font-family="FiraSansCondensed-Regular, Fira Sans"><tspan x="0" y="0" letter-spacing="-0.001em">ww</tspan><tspan y="0" letter-spacing="-0.02em">w</tspan><tspan y="0" letter-spacing="-0.04em">.</tspan><tspan y="0" letter-spacing="-0.004em">y</tspan><tspan y="0">o</tspan><tspan y="0" letter-spacing="-0.001em">u</tspan><tspan y="0" letter-spacing="-0.018em">r</tspan><tspan y="0">do</tspan><tspan y="0" letter-spacing="-0.001em">ma</tspan><tspan y="0">i</tspan><tspan y="0" letter-spacing="-0.001em">n</tspan><tspan y="0" letter-spacing="-0.01em">.</tspan><tspan y="0" letter-spacing="-0.014em">c</tspan><tspan y="0">om</tspan></text>
    <text id="yourmail_email.com" data-name="yourmail@email.com" transform="translate(97.186 423.293)" fill="#6d6e71" font-size="2" font-family="FiraSansCondensed-Regular, Fira Sans"><tspan x="0" y="0" letter-spacing="-0.004em">y</tspan><tspan y="0">o</tspan><tspan y="0" letter-spacing="-0.001em">u</tspan><tspan y="0">r</tspan><tspan y="0" letter-spacing="-0.001em">ma</tspan><tspan y="0">il</tspan><tspan y="0" letter-spacing="-0.001em">@</tspan><tspan y="0">e</tspan><tspan y="0" letter-spacing="-0.001em">ma</tspan><tspan y="0">i</tspan><tspan y="0" letter-spacing="0.002em">l</tspan><tspan y="0" letter-spacing="-0.01em">.</tspan><tspan y="0" letter-spacing="-0.014em">c</tspan><tspan y="0">om</tspan></text>
    <text id="_4577_Lakeland_Park_Drive_" data-name="4577 Lakeland Park Drive," transform="translate(159.027 418.548)" fill="#6d6e71" font-size="2" font-family="FiraSansCondensed-Regular, Fira Sans"><tspan x="0" y="0" letter-spacing="-0.01em">4</tspan><tspan y="0" letter-spacing="-0.022em">5</tspan><tspan y="0" letter-spacing="0.001em">7</tspan><tspan y="0">7 </tspan><tspan y="0" letter-spacing="-0.007em">L</tspan><tspan y="0" letter-spacing="-0.001em">a</tspan><tspan y="0" letter-spacing="-0.006em">k</tspan><tspan y="0">e</tspan><tspan y="0" letter-spacing="-0.006em">l</tspan><tspan y="0" letter-spacing="-0.001em">a</tspan><tspan y="0">nd </tspan><tspan y="0" letter-spacing="-0.033em">P</tspan><tspan y="0" letter-spacing="-0.001em">a</tspan><tspan y="0">r</tspan><tspan y="0" letter-spacing="-0.001em">k</tspan><tspan y="0" xml:space="preserve"> D</tspan><tspan y="0" letter-spacing="-0.001em">r</tspan><tspan y="0">i</tspan><tspan y="0" letter-spacing="-0.005em">v</tspan><tspan y="0" letter-spacing="-0.01em">e</tspan><tspan y="0">,</tspan></text>
    <text id="Chicago_South_Carolina" data-name="Chicago, South Carolina" transform="translate(159.027 423.293)" fill="#6d6e71" font-size="2" font-family="FiraSansCondensed-Regular, Fira Sans"><tspan x="0" y="0" letter-spacing="-0.011em">C</tspan><tspan y="0">hi</tspan><tspan y="0" letter-spacing="-0.005em">c</tspan><tspan y="0" letter-spacing="-0.001em">a</tspan><tspan y="0" letter-spacing="-0.002em">g</tspan><tspan y="0" letter-spacing="-0.01em">o</tspan><tspan y="0" letter-spacing="-0.001em">,</tspan><tspan y="0" xml:space="preserve"> So</tspan><tspan y="0" letter-spacing="-0.001em">u</tspan><tspan y="0">th </tspan><tspan y="0" letter-spacing="-0.01em">C</tspan><tspan y="0" letter-spacing="-0.001em">a</tspan><tspan y="0" letter-spacing="-0.019em">r</tspan><tspan y="0">o</tspan><tspan y="0" letter-spacing="-0.001em">l</tspan><tspan y="0">i</tspan><tspan y="0" letter-spacing="-0.001em">n</tspan><tspan y="0">a</tspan></text>
    <g id="Group_2200" data-name="Group 2200">
      <g id="Group_2199" data-name="Group 2199" clip-path="url(#clip-path)">
        <path id="Path_556" data-name="Path 556" d="M33.1,507.547a3.687,3.687,0,0,0,1.689,1.586l.04-.072c.032-.064.067-.126.1-.191a.308.308,0,0,1,.359-.208q.437.076.874.158c.095.017.188.042.281.067a.446.446,0,0,1,.3.572,1.149,1.149,0,0,1-1.018.754,2.2,2.2,0,0,1-1.055-.221,5.426,5.426,0,0,1-2.127-1.674,2.75,2.75,0,0,1-.573-1.341,1.41,1.41,0,0,1,.238-1.035,1.03,1.03,0,0,1,.451-.348.452.452,0,0,1,.614.285c.1.371.176.747.262,1.121a.655.655,0,0,1,.007.091.258.258,0,0,1-.13.264c-.1.059-.2.124-.306.19" transform="translate(-5.413 -85.648)" fill="#1a1718"/>
        <path id="Path_557" data-name="Path 557" d="M35.223,504.529a3.127,3.127,0,0,1,2.849,2.689c.017.114-.031.191-.126.2s-.162-.046-.178-.16a2.805,2.805,0,0,0-2.395-2.4c-.071-.01-.142-.017-.213-.026-.105-.011-.167-.07-.164-.158s.073-.147.182-.145h.045" transform="translate(-5.929 -85.474)" fill="#1a1718"/>
        <path id="Path_558" data-name="Path 558" d="M35.243,505.426a2.3,2.3,0,0,1,2,1.84.739.739,0,0,1,.012.073.15.15,0,0,1-.121.17.153.153,0,0,1-.179-.119c-.022-.09-.036-.184-.066-.272a1.948,1.948,0,0,0-1.652-1.383c-.081-.013-.15-.034-.175-.122s.054-.192.184-.188" transform="translate(-5.939 -85.626)" fill="#1a1718"/>
        <path id="Path_559" data-name="Path 559" d="M35.227,506.372a4.092,4.092,0,0,1,.439.154,1.374,1.374,0,0,1,.762.949.153.153,0,0,1-.108.206c-.091.02-.161-.032-.19-.137a1.1,1.1,0,0,0-.893-.841c-.019,0-.038-.006-.056-.011a.149.149,0,0,1-.114-.168.188.188,0,0,1,.16-.151" transform="translate(-5.941 -85.786)" fill="#1a1718"/>
        <path id="Path_560" data-name="Path 560" d="M178.715,510.293c-.13-.135-.258-.263-.381-.4a9.567,9.567,0,0,1-1.227-1.62,4.659,4.659,0,0,1-.548-1.292,2.239,2.239,0,0,1,.354-1.913,2.168,2.168,0,0,1,1.517-.9,2.231,2.231,0,0,1,2.412,1.518,2.379,2.379,0,0,1,.008,1.412,5.3,5.3,0,0,1-.711,1.484,10.314,10.314,0,0,1-1.375,1.664l-.05.045m.841-3.905a.838.838,0,1,0-.831.832.835.835,0,0,0,.831-.832" transform="translate(-29.899 -85.409)" fill="#1a1718"/>
        <path id="Path_561" data-name="Path 561" d="M104.435,508.541c-.392,0-.784,0-1.176,0-.045,0-.066-.01-.069-.057-.009-.12-.028-.24-.032-.36-.007-.248-.013-.5-.008-.747,0-.174.027-.348.04-.522,0-.045.022-.056.066-.056.622,0,1.244,0,1.866,0,.164,0,.327,0,.49,0,.051,0,.067.017.071.063.01.115.027.23.03.346.007.254.012.508.008.762,0,.169-.025.338-.037.507,0,.047-.021.066-.073.066-.392,0-.784,0-1.176,0" transform="translate(-17.475 -85.858)" fill="#1a1718"/>
        <path id="Path_562" data-name="Path 562" d="M104.458,505.96h-1.1c-.065,0-.066,0-.052-.062a3.516,3.516,0,0,1,.44-1.159,1.157,1.157,0,0,1,.439-.433.579.579,0,0,1,.615.035,1.334,1.334,0,0,1,.422.47,3.356,3.356,0,0,1,.345.874c.018.072.036.145.052.218.012.054.009.057-.046.057h-1.115" transform="translate(-17.5 -85.424)" fill="#1a1718"/>
        <path id="Path_563" data-name="Path 563" d="M104.46,509.384h1.11c.06,0,.061,0,.048.059a3.541,3.541,0,0,1-.432,1.148,1.17,1.17,0,0,1-.458.452.576.576,0,0,1-.574-.022,1.207,1.207,0,0,1-.409-.418,3.408,3.408,0,0,1-.42-1.071c-.008-.034-.012-.069-.023-.1s0-.047.04-.047h1.119" transform="translate(-17.5 -86.296)" fill="#1a1718"/>
        <path id="Path_564" data-name="Path 564" d="M106.727,508.537a6.808,6.808,0,0,0,0-1.734l.06,0c.355,0,.711,0,1.066,0a.068.068,0,0,1,.078.061,3.046,3.046,0,0,1,.107.7,3,3,0,0,1-.107.918.07.07,0,0,1-.082.062c-.354,0-.708,0-1.061,0l-.061,0" transform="translate(-18.081 -85.858)" fill="#1a1718"/>
        <path id="Path_565" data-name="Path 565" d="M101.8,508.541c-.179,0-.356,0-.534,0a.063.063,0,0,1-.072-.056,3.063,3.063,0,0,1,0-1.625c.012-.043.03-.061.078-.061.355,0,.711,0,1.066,0,.061,0,.061,0,.053.06a6.591,6.591,0,0,0-.046,1.008c.008.209.03.418.049.626,0,.037-.006.047-.042.047-.184,0-.368,0-.552,0" transform="translate(-17.126 -85.858)" fill="#1a1718"/>
        <path id="Path_566" data-name="Path 566" d="M101.43,505.987a3.034,3.034,0,0,1,1.729-1.552c-.007.014-.007.02-.011.025a3.639,3.639,0,0,0-.535,1.187c-.028.1-.051.206-.075.31-.007.026-.017.037-.044.037h-1.034a.18.18,0,0,1-.031-.006" transform="translate(-17.184 -85.458)" fill="#1a1718"/>
        <path id="Path_567" data-name="Path 567" d="M101.443,509.384h.051c.326,0,.65,0,.976,0,.047,0,.066.012.076.06a4.189,4.189,0,0,0,.37,1.086c.065.125.144.243.216.364a.223.223,0,0,1,.022.042,2.994,2.994,0,0,1-1.718-1.534l.007-.017" transform="translate(-17.185 -86.296)" fill="#1a1718"/>
        <path id="Path_568" data-name="Path 568" d="M105.892,504.438a3.033,3.033,0,0,1,1.725,1.554l-.055,0c-.331,0-.664,0-1,0-.038,0-.055-.01-.063-.05a4.285,4.285,0,0,0-.4-1.147c-.064-.12-.138-.234-.213-.361" transform="translate(-17.939 -85.458)" fill="#1a1718"/>
        <path id="Path_569" data-name="Path 569" d="M105.88,510.942a3.96,3.96,0,0,0,.615-1.478c.02-.09.006-.08.1-.08h1.022a2.893,2.893,0,0,1-.392.621,2.986,2.986,0,0,1-1.341.937" transform="translate(-17.937 -86.296)" fill="#1a1718"/>
        <line id="Line_231" data-name="Line 231" y2="9.345" transform="translate(93.598 417.233)" fill="none"/>
        <line id="Line_232" data-name="Line 232" y2="9.345" transform="translate(154.957 417.233)" fill="none"/>
        <line id="Line_233" data-name="Line 233" y2="9.345" transform="translate(35.93 417.233)" fill="none"/>
        <path id="Path_570" data-name="Path 570" d="M46.256,466.511c-.42,0-2.319.022-2.319.022v3.195H35.95a3.341,3.341,0,0,0-2.669,1.335,2.713,2.713,0,0,0-.459,1.729,2.787,2.787,0,0,0,.482,1.728,3.309,3.309,0,0,0,2.646,1.335h4.2a.716.716,0,0,1,.785.642.763.763,0,0,1-.679.828.646.646,0,0,1-.106,0H31.29v2.341h8.774a3.283,3.283,0,0,0,2.647-1.335,2.831,2.831,0,0,0,.482-1.729,2.883,2.883,0,0,0-.481-1.751,3.287,3.287,0,0,0-2.648-1.334l-4.2.022a.721.721,0,0,1-.785-.651.683.683,0,0,1,0-.092.7.7,0,0,1,.682-.727.652.652,0,0,1,.106,0h8.073v4.486a3.323,3.323,0,0,0,1.335,2.67,2.888,2.888,0,0,0,1.707.482h2.5v-2.321H46.957a.719.719,0,0,1-.7-.736c0-.017,0-.034,0-.051.007-.368,0-2.543,0-4.529l3.2-.022c0-.425-.022-2.319-.022-2.319H46.256Zm21.071.087.022,5.6v7.811h2.319v-2.844l1.313-1.663,2.582,4.552h2.67l-.218-.372s-2.332-4.125-3.369-5.974l3.28-3.939H72.907l-3.238,3.872V466.62s-1.917-.022-2.341-.022m28.336.984a1.441,1.441,0,0,0-1.444,1.437v.007a1.455,1.455,0,1,0,1.467-1.444h-.022Zm0,.175a1.28,1.28,0,1,1-1.269,1.291v-.022a1.265,1.265,0,0,1,1.261-1.269h.008m-.526.482v1.554h.218v-.7h.263c.254,0,.326.07.35.307a2.514,2.514,0,0,0,.066.394h.219a1.978,1.978,0,0,1-.088-.482c-.028-.191-.076-.271-.241-.306a.387.387,0,0,0,.306-.371c0-.393-.433-.393-.547-.394Zm.219.175h.329c.116,0,.306.019.307.262s-.184.241-.284.241h-.351Zm-14.6,1.268a5.176,5.176,0,0,0-.154,10.35h3.371V477.8H80.522a2.83,2.83,0,0,1-2.494-2.035h7.833a5.14,5.14,0,0,0-5.091-6.083h-.007m6.148.11.022,9.955h2.341v-7.614h1.97a.82.82,0,0,1,.913.714.9.9,0,0,1,.007.095v1.335h2.319v-1.444A2.856,2.856,0,0,0,94,471.127a3.347,3.347,0,0,0-2.67-1.334H86.91Zm-36.518.022.044,9.956h2.32v-7.636h1.969a.83.83,0,0,1,.914.738.871.871,0,0,1,0,.093V474.3h2.32v-1.444a2.857,2.857,0,0,0-.481-1.707,3.342,3.342,0,0,0-2.67-1.334H50.392Zm7.592.022,2.735,9.3.088.241c.052.214.063.537-.329.569H57.591v2.341h2.954a2.9,2.9,0,0,0,1.708-.5,4.438,4.438,0,0,0,1.619-2.647c.148-.512,2.712-9.3,2.712-9.3H64.308l-2.013,7.089-2.035-7.089Zm22.778,2.145a2.9,2.9,0,0,1,2.691,1.816H78.071a2.9,2.9,0,0,1,2.691-1.816" transform="translate(-5.301 -79.033)" fill="#0a1120"/>
      </g>
    </g>
    <text id="Lorem_ipsum_dolor_sit_amet_magna_consectetur_nonummy_nibh_Lorem_ipsum_dolor_sit_amet_magna_consectetur_nonummy_nibh_Lorem_ipsum_dolor_sit_amet_magna_consectetur_nonummy_nibh_Lorem_ipsum_dolor_sit_amet_magna_consectetur_nonummy_nibh_" data-name="Lorem ipsum dolor sit amet, magna consectetur nonummy nibh Lorem ipsum dolor sit amet, magna consectetur nonummy nibh Lorem ipsum dolor sit amet, magna consectetur nonummy nibh Lorem ipsum dolor sit amet, magna consectetur nonummy nibh " transform="translate(26.121 291.52)" fill="#6d6e71" font-size="8" font-family="Poppins-Light, Poppins" font-weight="300"><tspan x="0" y="8">Lorem ipsum dolor sit amet, </tspan><tspan x="0" y="17">magna consectetur nonummy </tspan></text>
  </g>
</svg>
