<svg xmlns="http://www.w3.org/2000/svg" width="10.679" height="11.279" viewBox="0 0 10.679 11.279">
  <path id="Icon" d="M752.868,837.454a.2.2,0,0,0-.291,0l-5.626,5.7a2.192,2.192,0,0,1-3.118,0,2.261,2.261,0,0,1,0-3.159l5.626-5.7a1.5,1.5,0,0,1,2.181.086,1.545,1.545,0,0,1,.085,2.209l-5.285,5.354a.753.753,0,0,1-1.072,0,.776.776,0,0,1,0-1.086l3.58-3.627a.21.21,0,0,0,0-.3.2.2,0,0,0-.291,0l-3.58,3.627a1.2,1.2,0,0,0,0,1.677,1.161,1.161,0,0,0,1.655,0l5.285-5.354a1.957,1.957,0,0,0-.085-2.8,1.9,1.9,0,0,0-2.764-.086l-5.626,5.7a2.683,2.683,0,0,0,0,3.75,2.6,2.6,0,0,0,3.7,0l5.626-5.7A.211.211,0,0,0,752.868,837.454Z" transform="translate(-742.527 -833.194)" fill="none" stroke="#6a707e" stroke-width="0.5"/>
</svg>
