<svg id="Group_1170" data-name="Group 1170" xmlns="http://www.w3.org/2000/svg" width="48.529" height="45.423" viewBox="0 0 48.529 45.423">
  <path id="Path_471" data-name="Path 471" d="M132.268,213.654a.8.8,0,0,0-.092.154,2.538,2.538,0,0,1-4.333,1.061,28.184,28.184,0,0,0-5.487-4.262,27.323,27.323,0,0,0-11.124-3.716,27.826,27.826,0,0,0-20.642,5.775c-.923.712-1.758,1.539-2.623,2.326a2.462,2.462,0,0,1-2.505.562,2.283,2.283,0,0,1-1.673-1.877,2.49,2.49,0,0,1,.754-2.334,33.166,33.166,0,0,1,9.291-6.535,31.428,31.428,0,0,1,10.037-2.894,32.877,32.877,0,0,1,25.782,7.753c.495.417.952.879,1.44,1.3a3.712,3.712,0,0,1,1.175,1.732Z" transform="translate(-83.739 -201.679)" fill="#fb5750"/>
  <path id="Path_472" data-name="Path 472" d="M206.041,441.619c-2.4,0-4.8.008-7.2,0a2.676,2.676,0,0,1-2.82-2.107,2.865,2.865,0,0,1,.46-2.254q2.336-3.706,4.656-7.423c.83-1.324,1.656-2.651,2.491-3.973a2.7,2.7,0,0,1,4.79-.008c2.406,3.8,4.78,7.626,7.205,11.417a2.79,2.79,0,0,1-1.589,4.273,4.176,4.176,0,0,1-.892.075Q209.593,441.625,206.041,441.619Zm.819-9.335h-.015c.034-.583.072-1.167.1-1.75s.048-1.168.078-1.752a1.015,1.015,0,0,0-.92-1.2,1.1,1.1,0,0,0-1.112,1.159c.088,1.878.191,3.754.289,5.632.029.552.039,1.106.09,1.656a.628.628,0,0,0,.687.634c.416-.014.6-.277.622-.685C206.738,434.745,206.8,433.515,206.861,432.284Zm-.837,5.807a.869.869,0,0,0-.872.823.858.858,0,0,0,1.714.085A.887.887,0,0,0,206.023,438.091Z" transform="translate(-181.744 -396.198)" fill="#fb5750"/>
  <path id="Path_473" data-name="Path 473" d="M173.742,289.446a2.282,2.282,0,0,1-1.431,2.016,2.534,2.534,0,0,1-2.818-.463,32.3,32.3,0,0,0-3.218-2.56,18.256,18.256,0,0,0-22.3,2.173,4.231,4.231,0,0,1-1.434.953,2.412,2.412,0,0,1-2.824-1.085,2.488,2.488,0,0,1,.422-3.092,30.962,30.962,0,0,1,2.736-2.337,21.847,21.847,0,0,1,10.407-4.228,22.926,22.926,0,0,1,19.7,6.548A2.513,2.513,0,0,1,173.742,289.446Z" transform="translate(-132.318 -270.608)" fill="#fb5750"/>
  <path id="Path_474" data-name="Path 474" d="M205.084,359.557a13.4,13.4,0,0,1,9.629,3.809,2.478,2.478,0,0,1,.686,2.69,2.334,2.334,0,0,1-2.089,1.677,2.486,2.486,0,0,1-2.14-.784,7.72,7.72,0,0,0-3.936-2.137,8,8,0,0,0-7.476,2.064,2.593,2.593,0,0,1-2.676.746,2.475,2.475,0,0,1-1.028-4.13,12.916,12.916,0,0,1,6.862-3.67C203.749,359.659,204.6,359.613,205.084,359.557Z" transform="translate(-181.192 -339.566)" fill="#fb5750"/>
</svg>
