<?xml version="1.0" encoding="utf-8"?>
<!-- Svg Vector Icons : http://www.onlinewebfonts.com/icon -->
<!DOCTYPE svg PUBLIC "-//W3C//DTD SVG 1.1//EN" "http://www.w3.org/Graphics/SVG/1.1/DTD/svg11.dtd">
<svg version="1.1" xmlns="http://www.w3.org/2000/svg" xmlns:xlink="http://www.w3.org/1999/xlink" x="0px" y="0px" viewBox="0 0 1000 1000" enable-background="new 0 0 1000 1000" xml:space="preserve">
<metadata> Svg Vector Icons : http://www.onlinewebfonts.com/icon </metadata>
<g><g transform="translate(0.000000,511.000000) scale(0.100000,-0.100000)"><path d="M3973.3,4977.8c-196.9-61.4-360.5-263.4-360.5-442.4v-76.7l-314.5-10.2c-278.7-7.7-332.4-17.9-457.7-79.3c-158.5-76.7-294.1-212.2-383.5-381l-58.8-109.9V-174.6c0-3914.8,2.6-4055.4,48.6-4142.4c97.2-184.1,219.9-304.3,393.8-388.7l171.3-84.4h1981.7h1981.7l171.3,84.4c173.9,84.4,296.6,204.6,393.8,388.7c46,87,48.6,235.3,56.3,4114.3l5.1,4024.7l-61.4,133c-84.4,184.1-222.4,329.9-393.8,414.2c-125.3,61.4-179,71.6-457.7,79.3l-314.5,10.2v74.2c0,104.8-43.5,204.6-135.5,299.2c-166.2,176.4-135.5,171.3-1194.1,176.4C4282.8,5013.6,4062.8,5006,3973.3,4977.8z M6579-174.6V-3780H4993.6H3408.2v3605.4v3605.4h1585.4H6579V-174.6z"/><path d="M4766,901.9l-979.3-1345l552.3-7.7c444.9-5.1,552.3-12.8,552.3-40.9c0-17.9-143.2-457.7-319.6-974.2c-176.4-519.1-317.1-943.5-314.5-948.6c10.2-7.7,1912.6,2620.9,1930.6,2664.4c10.2,30.7-86.9,35.8-542.1,35.8c-434.7,0-552.3,7.7-542.1,33.2c71.6,194.3,657.1,1917.8,652,1922.9C5750.5,2244.4,5305.6,1640.9,4766,901.9z"/></g></g>
</svg>