<svg xmlns="http://www.w3.org/2000/svg" width="12.944" height="11.376" viewBox="0 0 12.944 11.376">
  <g id="Group_1520" data-name="Group 1520" transform="translate(0.149 0.15)">
    <path id="Path_48" data-name="Path 48" d="M-854.222,155.018a.282.282,0,0,0-.274-.141c-.646,0,.031,0-.615,0h-.158c0-.04,0-.071-.006-.1a.459.459,0,0,0-.321-.451,2.765,2.765,0,0,0-1.2-.2.507.507,0,0,0-.389.192.163.163,0,0,1-.106.063c-.231.006-.463,0-.688,0-.011-.015-.021-.022-.022-.029-.023-.3-.035-.312-.332-.366-.259-.047-.517-.1-.776-.149a.163.163,0,0,1-.142-.119.726.726,0,0,0-.713-.5c-.373-.009-.746,0-1.118,0-.161,0-.249.08-.25.212s.088.217.258.218c.359,0,.718,0,1.077,0,.259,0,.383.128.383.394q0,1.038,0,2.075c0,.3-.118.422-.414.422h-5.233v-2.893h3.226c.192,0,.291-.075.291-.216s-.1-.215-.291-.216h-3.355a.217.217,0,0,0-.081,0c-.382.167-.774.315-1.14.512a.6.6,0,0,0-.258.555c0,.534,0,1.068,0,1.6a.726.726,0,0,0,.44.693c.2.1.408.18.615.261.083.032.095.074.079.157-.08.423-.153.847-.228,1.271-.028.159.029.265.156.291s.218-.037.249-.2c.085-.459.165-.919.249-1.384h1.732c-.122.472-.251.935-.358,1.4-.077.338-.136.681-.179,1.025a1.725,1.725,0,0,0,.241,1.065c.035.064.072.126.116.2h-2.2c.042-.252.083-.5.126-.749.037-.214.075-.429.114-.643.029-.158-.026-.269-.147-.3s-.231.054-.261.217c-.068.378-.132.757-.2,1.135a1.056,1.056,0,0,0-.021.109.385.385,0,0,1-.227.363.587.587,0,0,0-.3.557q0,1.045,0,2.089a.768.768,0,0,0,.825.839q1.255,0,2.51,0h1.964a.777.777,0,0,0,.849-.86c0-.292,0-.585,0-.877a.308.308,0,0,0-.152-.287c-.729-.488-1.467-.964-2.179-1.478a1.5,1.5,0,0,1-.638-1.473c.026-.206.076-.409.1-.616.016-.117.06-.14.176-.139a3.6,3.6,0,0,0,.717-.051.624.624,0,0,0,.469-.835c-.06-.22-.084-.451-.13-.707H-860a.765.765,0,0,0,.769-.529.163.163,0,0,1,.1-.082c.261-.058.525-.107.787-.16.317-.063.317-.063.35-.4.242,0,.486,0,.73,0,.027,0,.058.036.078.062a.487.487,0,0,0,.375.193,2.738,2.738,0,0,0,1.224-.206.489.489,0,0,0,.31-.549h.149c.636,0-.049,0,.587,0a.38.38,0,0,0,.315-.117Zm-12.235,7.248c0-.282,0-.546,0-.81s.083-.353.341-.353c.886,0,1.773,0,2.659,0a.411.411,0,0,1,.213.068c.5.333,1,.673,1.5,1.01.027.018.051.041.1.083h-.848c-.173,0-.279.086-.276.218s.1.208.271.209c.336,0,.673,0,1.009,0h.352c0,.274,0,.533,0,.792a.336.336,0,0,1-.366.369c-.186,0-.373,0-.559,0h-4c-.272,0-.4-.13-.4-.408,0-.107,0-.214,0-.32V162.7h2.967a.783.783,0,0,0,.162-.013.167.167,0,0,0,.147-.187.384.384,0,0,0-.129-.2c-.037-.032-.112-.024-.17-.024h-2.978Zm.761-5.832a5.273,5.273,0,0,1-.615-.284.385.385,0,0,1-.139-.28c-.014-.519-.007-1.039-.006-1.558a.309.309,0,0,1,.151-.294c.193-.1.4-.177.608-.27Zm6.5-.508v-1.673l.781.152c0,.441,0,.867,0,1.293a.123.123,0,0,1-.07.092C-858.715,155.84-858.947,155.88-859.193,155.926Zm2.36-.311a.089.089,0,0,1-.013-.033c0-.315,0-.63,0-.946,0-.078.042-.084.1-.091a2.15,2.15,0,0,1,.981.175.147.147,0,0,1,.075.108c.008.176.006.352,0,.528a.125.125,0,0,1-.054.1A1.99,1.99,0,0,1-856.833,155.615Zm-5.945,1.35c.059.3.112.58.167.855.029.148-.026.255-.172.277-.214.032-.43.042-.678.064.113-.405.215-.774.322-1.141a.1.1,0,0,1,.078-.053C-862.958,156.961-862.854,156.965-862.778,156.965Zm4.783-2.143h.721v.545H-858Z" transform="translate(866.867 -153.212)" fill="#7e84a3" stroke="#7e84a3" stroke-width="0.3"/>
  </g>
</svg>
