<svg xmlns="http://www.w3.org/2000/svg" width="10" height="9.999" viewBox="0 0 10 9.999">
  <g id="Group_1244" data-name="Group 1244" transform="translate(-18.086 -142.524)">
    <path id="Path_486" data-name="Path 486" d="M27.3,152.523a4.219,4.219,0,0,0-8.413-.448c-.017.148-.017.3-.024.448h-.781a5.025,5.025,0,0,1,3.337-4.742,2.856,2.856,0,0,1-1.224-2.346,2.773,2.773,0,0,1,.855-2.071,2.89,2.89,0,1,1,3.676,4.431l.109.044a4.969,4.969,0,0,1,3.039,3.254,4.391,4.391,0,0,1,.192,1.043.806.806,0,0,0,.017.094v.293ZM23.088,143.3a2.109,2.109,0,1,0,2.107,2.116A2.116,2.116,0,0,0,23.088,143.3Z" fill="#7e84a3"/>
  </g>
</svg>
